<svg width="28" height="28" viewBox="0 0 28 28" fill="none" xmlns="http://www.w3.org/2000/svg">
<path d="M14 25.0843C19.1546 25.0843 23.3333 20.9056 23.3333 15.7509C23.3333 12.2963 21.4564 7.70798 18.6666 5.05725L16.3333 8.16568L12.25 2.91568C8.16663 5.83235 4.66663 11.1945 4.66663 15.7509C4.66663 20.9056 8.8453 25.0843 14 25.0843Z" fill="#01944F" stroke="#01944F" stroke-width="1.5" stroke-linejoin="round"/>
<path d="M14 21.5823C16.5773 21.5823 18.6667 19.2318 18.6667 16.3323C18.6667 15.4094 18.4551 14.5423 18.0834 13.7887L15.75 15.7489L12.25 11.0811C11.0834 12.2478 9.33337 14.129 9.33337 16.3323C9.33337 19.2318 11.4227 21.5823 14 21.5823Z" fill="#00BE60" stroke="#00BE60" stroke-width="1.5" stroke-linejoin="round"/>
</svg>
