<svg width="41" height="44" viewBox="0 0 41 44" fill="none" xmlns="http://www.w3.org/2000/svg">
<path d="M17.2109 3.625V4.75L12.7422 15H10.5625L15.0312 5.25H9.25V3.625H17.2109ZM18.9062 13.9922C18.9062 13.6797 19.013 13.4167 19.2266 13.2031C19.4401 12.9896 19.7292 12.8828 20.0938 12.8828C20.4583 12.8828 20.7474 12.9896 20.9609 13.2031C21.1745 13.4167 21.2812 13.6797 21.2812 13.9922C21.2812 14.2995 21.1745 14.5599 20.9609 14.7734C20.7474 14.9818 20.4583 15.0859 20.0938 15.0859C19.7292 15.0859 19.4401 14.9818 19.2266 14.7734C19.013 14.5599 18.9062 14.2995 18.9062 13.9922ZM30.8047 11.8906C30.8047 12.599 30.638 13.1979 30.3047 13.6875C29.9766 14.1719 29.526 14.5391 28.9531 14.7891C28.3854 15.0339 27.7396 15.1562 27.0156 15.1562C26.2969 15.1562 25.6484 15.0339 25.0703 14.7891C24.4974 14.5391 24.0417 14.1719 23.7031 13.6875C23.3698 13.1979 23.2031 12.599 23.2031 11.8906C23.2031 11.4167 23.2969 10.987 23.4844 10.6016C23.6771 10.2161 23.9427 9.88542 24.2812 9.60938C24.6198 9.32812 25.0208 9.11458 25.4844 8.96875C25.9479 8.81771 26.4531 8.74219 27 8.74219C27.7292 8.74219 28.3802 8.875 28.9531 9.14062C29.5312 9.40104 29.9844 9.76823 30.3125 10.2422C30.6406 10.7109 30.8047 11.2604 30.8047 11.8906ZM28.7266 11.7656C28.7266 11.401 28.6536 11.0859 28.5078 10.8203C28.3672 10.5495 28.1667 10.3411 27.9062 10.1953C27.6458 10.0495 27.3438 9.97656 27 9.97656C26.651 9.97656 26.3464 10.0495 26.0859 10.1953C25.8307 10.3411 25.6302 10.5495 25.4844 10.8203C25.3438 11.0859 25.2734 11.401 25.2734 11.7656C25.2734 12.1354 25.3438 12.4531 25.4844 12.7188C25.6302 12.9792 25.8333 13.1797 26.0938 13.3203C26.3542 13.4609 26.6615 13.5312 27.0156 13.5312C27.3698 13.5312 27.6745 13.4609 27.9297 13.3203C28.1849 13.1797 28.3802 12.9792 28.5156 12.7188C28.6562 12.4531 28.7266 12.1354 28.7266 11.7656ZM30.5547 6.625C30.5547 7.19792 30.4036 7.70833 30.1016 8.15625C29.7995 8.59896 29.3802 8.94531 28.8438 9.19531C28.3125 9.44531 27.7031 9.57031 27.0156 9.57031C26.3281 9.57031 25.7135 9.44531 25.1719 9.19531C24.6354 8.94531 24.2135 8.59896 23.9062 8.15625C23.6042 7.70833 23.4531 7.19792 23.4531 6.625C23.4531 5.94792 23.6068 5.375 23.9141 4.90625C24.2214 4.43229 24.6406 4.07292 25.1719 3.82812C25.7083 3.58333 26.3177 3.46094 27 3.46094C27.6927 3.46094 28.3073 3.58333 28.8438 3.82812C29.3802 4.07292 29.7995 4.43229 30.1016 4.90625C30.4036 5.375 30.5547 5.94792 30.5547 6.625ZM28.4922 6.71094C28.4922 6.38802 28.4323 6.10677 28.3125 5.86719C28.1927 5.6224 28.0208 5.43229 27.7969 5.29688C27.5781 5.16146 27.3125 5.09375 27 5.09375C26.6979 5.09375 26.4375 5.15885 26.2188 5.28906C26 5.41927 25.8307 5.60677 25.7109 5.85156C25.5911 6.09115 25.5312 6.3776 25.5312 6.71094C25.5312 7.03906 25.5911 7.32552 25.7109 7.57031C25.8307 7.8151 26 8.00781 26.2188 8.14844C26.4427 8.28385 26.7083 8.35156 27.0156 8.35156C27.3229 8.35156 27.5859 8.28385 27.8047 8.14844C28.0234 8.00781 28.1927 7.8151 28.3125 7.57031C28.4323 7.32552 28.4922 7.03906 28.4922 6.71094Z" fill="#FAFAFA"/>
<g clip-path="url(#clip0_280_1740)">
<path d="M2.51898 23H37.9483C39.355 23 40.4673 24.145 40.4673 25.519V40.6983C40.4673 42.105 39.3223 43.2173 37.9483 43.2173H2.51898C1.11228 43.2173 0 42.0723 0 40.6983V25.519C0 24.145 1.14499 23 2.51898 23Z" fill="#D1AD2A"/>
<path d="M5.0708 38.8337H8.21135V27.4165H5.0708V38.8337Z" fill="black"/>
<path d="M14.983 27.4165L14.2633 32.7489L13.838 29.8701C13.7072 28.9541 13.5763 28.1362 13.4782 27.4492H9.48706V38.8337H12.1696V31.3095L13.3146 38.8337H15.212L16.2916 31.1459V38.8337H18.9741V27.4165H14.983Z" fill="black"/>
<path d="M20.25 38.8337V27.4165H25.1898C26.3021 27.4165 27.2181 28.2998 27.2181 29.4121V36.7727C27.2181 37.885 26.3021 38.7683 25.1898 38.7683H20.25V38.8337ZM23.9467 29.4775C23.8158 29.4121 23.5868 29.3793 23.227 29.3793V36.8382C23.685 36.8382 23.9794 36.74 24.0775 36.5764C24.1757 36.4129 24.2411 35.9549 24.2411 35.1697V30.7861C24.2411 30.2626 24.2084 29.9355 24.1757 29.8046C24.143 29.6411 24.0775 29.5429 23.9467 29.4775Z" fill="black"/>
<path d="M33.172 30.2953H33.3683C34.5133 30.2953 35.4293 31.1786 35.4293 32.2909V36.8709C35.4293 37.9831 34.5133 38.8664 33.3683 38.8664H33.172C32.485 38.8664 31.8634 38.5393 31.5036 38.0159L31.3073 38.7029H28.4612V27.4165H31.5036V31.0805C31.8962 30.5898 32.485 30.2953 33.172 30.2953ZM32.5177 35.824V33.1415C32.5177 32.6835 32.485 32.389 32.4196 32.2582C32.3542 32.1273 32.1252 32.0292 31.9616 32.0292C31.798 32.0292 31.5363 32.0946 31.4709 32.2255V33.1415V35.9222V36.8054C31.5363 36.9363 31.7653 37.0017 31.9616 37.0017C32.1252 37.0017 32.3869 36.9363 32.4196 36.8054C32.5177 36.6746 32.5177 36.3474 32.5177 35.824Z" fill="black"/>
</g>
<defs>
<clipPath id="clip0_280_1740">
<rect width="40.5" height="20.25" fill="white" transform="translate(0 23)"/>
</clipPath>
</defs>
</svg>
