<svg width="89" height="32" viewBox="0 0 89 32" fill="none" xmlns="http://www.w3.org/2000/svg">
<path fill-rule="evenodd" clip-rule="evenodd" d="M34.928 2.88739C35.0169 2.15974 34.7131 1.3335 33.98 1.3335V1.3335H6.09883V1.3335C5.49369 1.3335 5.20786 1.98914 5.28125 2.58981L8.07681 25.4706C8.19713 26.4553 8.86459 27.2871 9.79993 27.6179L19.8777 31.1816C20.2636 31.3181 20.6853 31.3143 21.0688 31.171L30.4834 27.6514C31.397 27.3099 32.0444 26.4882 32.1627 25.5201L34.928 2.88739Z" fill="#5D2E8E"/>
<path d="M16.4475 21.9403C16.1385 21.9403 15.8782 21.8346 15.6668 21.6232C15.4554 21.4118 15.3497 21.1515 15.3497 20.8425V5.00949C15.3497 4.70047 15.4554 4.44025 15.6668 4.22881C15.8782 4.00112 16.1385 3.88727 16.4475 3.88727C16.7565 3.88727 17.0167 4.00112 17.2282 4.22881C17.4558 4.44025 17.5697 4.70047 17.5697 5.00949V14.9875L23.376 9.62034C23.4735 9.53902 23.5793 9.46583 23.6931 9.40077C23.8232 9.33572 23.9615 9.30319 24.1078 9.30319C24.5307 9.30319 24.8153 9.42517 24.9617 9.66913C25.1081 9.89683 25.1813 10.1327 25.1813 10.3766C25.1813 10.4742 25.1569 10.5962 25.1081 10.7426C25.0593 10.8727 24.9454 11.0272 24.7665 11.2061L21.2535 14.3532L25.6692 20.2082C25.8318 20.4197 25.9131 20.6392 25.9131 20.8669C25.9131 21.1922 25.8074 21.4524 25.596 21.6476C25.3846 21.8428 25.1162 21.9403 24.7909 21.9403C24.4494 21.9403 24.1485 21.7858 23.8883 21.4768L19.6922 15.7681L17.5697 17.6954V20.8425C17.5697 21.1515 17.4558 21.4118 17.2282 21.6232C17.0167 21.8346 16.7565 21.9403 16.4475 21.9403Z" fill="#E0E0E0"/>
<rect y="6.14502" width="4.35644" height="11.3267" transform="rotate(-6 0 6.14502)" fill="#F9A61C"/>
<mask id="path-4-inside-1_283_3482" fill="white">
<path d="M36.5941 6.15186H84.5644C86.4891 6.15186 88.0495 7.71221 88.0495 9.637V20.0925C88.0495 22.0172 86.4891 23.5776 84.5644 23.5776H36.5941V6.15186Z"/>
</mask>
<path d="M36.5941 5.28057H84.5644C86.9703 5.28057 88.9208 7.23101 88.9208 9.637L87.1782 9.637C87.1782 8.19341 86.0079 7.02314 84.5644 7.02314H36.5941V5.28057ZM88.9208 20.0924C88.9208 22.4984 86.9703 24.4489 84.5644 24.4489H36.5941V22.7063H84.5644C86.0079 22.7063 87.1782 21.536 87.1782 20.0925L88.9208 20.0924ZM36.5941 23.5776V6.15186V23.5776ZM84.5644 5.28057C86.9703 5.28057 88.9208 7.23101 88.9208 9.637V20.0924C88.9208 22.4984 86.9703 24.4489 84.5644 24.4489L84.5644 22.7063C86.0079 22.7063 87.1782 21.536 87.1782 20.0925V9.637C87.1782 8.19341 86.0079 7.02314 84.5644 7.02314L84.5644 5.28057Z" fill="#E0E0E0" mask="url(#path-4-inside-1_283_3482)"/>
<path d="M44.8552 16.999L44.1405 16.1686L48.8441 10.9477L48.8713 10.9136L48.1293 10.8183V9.95386H51.3082V10.8183L50.3756 10.9885L44.8552 16.999ZM42.5 19.8647V19.0071L43.6095 18.8165V11.0089L42.5 10.8183V9.95386H46.06V10.8183L44.9505 11.0089V18.8165L46.06 19.0071V19.8647H42.5ZM48.354 19.8647V19.0071L49.1708 18.9118L49.164 18.905L46.4208 15.0999L47.1695 14.0448L50.75 18.8369L51.6621 19.0071V19.8647H48.354ZM52.5062 19.8647V19.0071L53.6157 18.8165V10.301L52.5062 10.1104V9.24593H54.9567V13.4798C55.2108 13.1259 55.5217 12.8513 55.8892 12.6562C56.2568 12.4611 56.6652 12.3635 57.1145 12.3635C57.9041 12.3635 58.5167 12.5995 58.9523 13.0714C59.388 13.5434 59.6058 14.2694 59.6058 15.2496V18.8165L60.7153 19.0071V19.8647H57.1553V19.0071L58.2648 18.8165V15.236C58.2648 14.6279 58.1332 14.1787 57.87 13.8883C57.6114 13.5978 57.2234 13.4526 56.7061 13.4526C56.3385 13.4526 56.0027 13.5411 55.6986 13.7181C55.3991 13.8905 55.1518 14.1265 54.9567 14.426V18.8165L56.0662 19.0071V19.8647H52.5062ZM64.0167 20.0077C63.2498 20.0077 62.6667 19.8216 62.2673 19.4495C61.868 19.0729 61.6683 18.5442 61.6683 17.8635C61.6683 17.1647 61.9542 16.6042 62.526 16.1822C63.0978 15.7556 63.8919 15.5423 64.9084 15.5423H66.2221V14.8208C66.2221 14.3761 66.086 14.0312 65.8137 13.7862C65.546 13.5411 65.1671 13.4186 64.677 13.4186C64.3684 13.4186 64.1007 13.4572 63.8738 13.5343C63.6469 13.6069 63.4404 13.709 63.2543 13.8406L63.1114 14.8685H62.0767V13.1803C62.408 12.9126 62.7937 12.7107 63.2339 12.5745C63.6741 12.4338 64.1619 12.3635 64.6974 12.3635C65.5914 12.3635 66.2925 12.5768 66.8007 13.0034C67.309 13.4299 67.5631 14.0403 67.5631 14.8344V18.3808C67.5631 18.4761 67.5631 18.5692 67.5631 18.6599C67.5677 18.7507 67.5745 18.8414 67.5835 18.9322L68.2983 19.0071V19.8647H66.3719C66.3311 19.6651 66.2993 19.4858 66.2766 19.327C66.2539 19.1682 66.238 19.0093 66.229 18.8505C65.9703 19.1818 65.6458 19.4586 65.2556 19.681C64.8698 19.8988 64.4569 20.0077 64.0167 20.0077ZM64.2141 18.8845C64.6588 18.8845 65.065 18.7779 65.4325 18.5646C65.8001 18.3513 66.0633 18.0949 66.2221 17.7954V16.4613H64.8608C64.2436 16.4613 63.7807 16.6088 63.4721 16.9037C63.1636 17.1987 63.0093 17.5277 63.0093 17.8907C63.0093 18.2129 63.1091 18.4602 63.3088 18.6327C63.5085 18.8006 63.8102 18.8845 64.2141 18.8845ZM69.2717 19.8647V19.0071L70.3812 18.8165V10.301L69.2717 10.1104V9.24593H71.7221V18.8165L72.8317 19.0071V19.8647H69.2717ZM76.3917 19.9805C75.8471 19.9805 75.4138 19.8216 75.0916 19.504C74.7739 19.1818 74.6151 18.669 74.6151 17.9656V13.4935H73.4511V12.4996H74.6151V10.723H75.9561V12.4996H77.5557V13.4935H75.9561V17.9656C75.9561 18.3196 76.0264 18.5805 76.1671 18.7484C76.3077 18.9163 76.4961 19.0003 76.732 19.0003C76.8909 19.0003 77.0679 18.9867 77.263 18.9594C77.4581 18.9277 77.6101 18.9004 77.7191 18.8777L77.9028 19.7558C77.7077 19.8148 77.4672 19.867 77.1813 19.9124C76.9 19.9578 76.6368 19.9805 76.3917 19.9805ZM78.7129 19.8647V19.0071L79.8224 18.8165V13.5547L78.7129 13.3641V12.4996H81.1634V18.8165L82.2729 19.0071V19.8647H78.7129ZM79.7543 10.6822V9.24593H81.1634V10.6822H79.7543Z" fill="#ECECEC"/>
</svg>
