<svg width="49" height="42" viewBox="0 0 49 42" fill="none" xmlns="http://www.w3.org/2000/svg">
<path d="M21.8215 11.0553V12.6803H13.6262L13.5403 11.4303L18.3606 3.82874H20.009L18.2278 6.85217L15.6418 11.0553H21.8215ZM20.47 3.82874V15.2037H18.3997V3.82874H20.47ZM23.259 14.1959C23.259 13.8834 23.3658 13.6204 23.5793 13.4069C23.7929 13.1933 24.0819 13.0865 24.4465 13.0865C24.8111 13.0865 25.1002 13.1933 25.3137 13.4069C25.5273 13.6204 25.634 13.8834 25.634 14.1959C25.634 14.5032 25.5273 14.7636 25.3137 14.9772C25.1002 15.1855 24.8111 15.2897 24.4465 15.2897C24.0819 15.2897 23.7929 15.1855 23.5793 14.9772C23.3658 14.7636 23.259 14.5032 23.259 14.1959ZM29.8684 8.60217H31.0325C31.4439 8.60217 31.7825 8.53186 32.0481 8.39124C32.3189 8.2454 32.5194 8.04749 32.6497 7.79749C32.7851 7.54228 32.8528 7.24801 32.8528 6.91467C32.8528 6.58655 32.7929 6.30269 32.6731 6.06311C32.5533 5.81832 32.371 5.63082 32.1262 5.50061C31.8866 5.36519 31.5793 5.29749 31.2043 5.29749C30.9023 5.29749 30.6236 5.35738 30.3684 5.47717C30.1184 5.59696 29.9179 5.76884 29.7668 5.9928C29.621 6.21155 29.5481 6.47457 29.5481 6.78186H27.4778C27.4778 6.16728 27.6392 5.62821 27.9622 5.16467C28.2903 4.69592 28.733 4.32874 29.2903 4.06311C29.8476 3.79749 30.47 3.66467 31.1575 3.66467C31.9075 3.66467 32.5637 3.78967 33.1262 4.03967C33.6939 4.28446 34.134 4.64644 34.4465 5.12561C34.7642 5.60478 34.9231 6.19853 34.9231 6.90686C34.9231 7.2454 34.8424 7.58394 34.6809 7.92249C34.5247 8.25582 34.2929 8.5579 33.9856 8.82874C33.6835 9.09436 33.3111 9.31051 32.8684 9.47717C32.4309 9.63863 31.9283 9.71936 31.3606 9.71936H29.8684V8.60217ZM29.8684 10.1959V9.09436H31.3606C32.0012 9.09436 32.5559 9.16988 33.0247 9.32092C33.4986 9.46676 33.8892 9.67509 34.1965 9.94592C34.5038 10.2115 34.7304 10.5214 34.8762 10.8756C35.0273 11.2298 35.1028 11.61 35.1028 12.0162C35.1028 12.5475 35.0038 13.0214 34.8059 13.4381C34.608 13.8496 34.3293 14.1985 33.97 14.485C33.6158 14.7714 33.1991 14.9902 32.72 15.1412C32.2408 15.2871 31.7226 15.36 31.1653 15.36C30.6809 15.36 30.2096 15.2949 29.7512 15.1647C29.2981 15.0293 28.8892 14.8287 28.5247 14.5631C28.1601 14.2923 27.871 13.9537 27.6575 13.5475C27.4439 13.136 27.3372 12.6595 27.3372 12.1178H29.4075C29.4075 12.4303 29.483 12.7089 29.634 12.9537C29.7903 13.1985 30.0038 13.3912 30.2747 13.5319C30.5507 13.6673 30.8606 13.735 31.2043 13.735C31.5846 13.735 31.9101 13.6673 32.1809 13.5319C32.4569 13.3912 32.6679 13.1933 32.8137 12.9381C32.9596 12.6777 33.0325 12.3678 33.0325 12.0084C33.0325 11.5813 32.9517 11.235 32.7903 10.9694C32.6288 10.7037 32.3971 10.5084 32.095 10.3834C31.7981 10.2584 31.4439 10.1959 31.0325 10.1959H29.8684Z" fill="white"/>
<path d="M39.7687 41.046C44.7045 41.046 48.7057 37.0518 48.7057 32.1248C48.7057 27.1978 44.7045 23.2036 39.7687 23.2036C34.833 23.2036 30.8318 27.1978 30.8318 32.1248C30.8318 37.0518 34.833 41.046 39.7687 41.046Z" fill="#58C3F4"/>
<path d="M24.6025 41.046C29.5382 41.046 33.5394 37.0518 33.5394 32.1248C33.5394 27.1978 29.5382 23.2036 24.6025 23.2036C19.6667 23.2036 15.6655 27.1978 15.6655 32.1248C15.6655 37.0518 19.6667 41.046 24.6025 41.046Z" fill="#2DE070"/>
<path d="M9.43695 41.0461C14.3727 41.0461 18.3739 37.0519 18.3739 32.1249C18.3739 27.1979 14.3727 23.2037 9.43695 23.2037C4.50121 23.2037 0.5 27.1979 0.5 32.1249C0.5 37.0519 4.50121 41.0461 9.43695 41.0461Z" fill="#E68A2F"/>
<path fill-rule="evenodd" clip-rule="evenodd" d="M17.0196 36.8474C16.1615 35.4776 15.6655 33.8586 15.6655 32.1239C15.6655 30.3892 16.1615 28.7702 17.0196 27.4004C17.8777 28.7702 18.3737 30.3892 18.3737 32.1239C18.3737 33.8586 17.8777 35.4776 17.0196 36.8474Z" fill="#FAFAFA"/>
<path fill-rule="evenodd" clip-rule="evenodd" d="M32.1859 27.4004C33.044 28.7702 33.54 30.3892 33.54 32.1239C33.54 33.8586 33.044 35.4776 32.1859 36.8474C31.3278 35.4776 30.8318 33.8586 30.8318 32.1239C30.8318 30.3892 31.3278 28.7702 32.1859 27.4004Z" fill="#FAFAFA"/>
</svg>
