<svg width="66" height="43" viewBox="0 0 66 43" fill="none" xmlns="http://www.w3.org/2000/svg">
<path d="M25.7307 12.8506C25.7307 13.5589 25.564 14.1579 25.2307 14.6475C24.9026 15.1318 24.4521 15.499 23.8792 15.749C23.3114 15.9938 22.6656 16.1162 21.9417 16.1162C21.2229 16.1162 20.5745 15.9938 19.9963 15.749C19.4234 15.499 18.9677 15.1318 18.6292 14.6475C18.2958 14.1579 18.1292 13.5589 18.1292 12.8506C18.1292 12.3766 18.2229 11.9469 18.4104 11.5615C18.6031 11.1761 18.8687 10.8454 19.2073 10.5693C19.5458 10.2881 19.9469 10.0745 20.4104 9.92871C20.8739 9.77767 21.3792 9.70215 21.926 9.70215C22.6552 9.70215 23.3062 9.83496 23.8792 10.1006C24.4573 10.361 24.9104 10.7282 25.2385 11.2021C25.5667 11.6709 25.7307 12.2204 25.7307 12.8506ZM23.6526 12.7256C23.6526 12.361 23.5797 12.0459 23.4338 11.7803C23.2932 11.5094 23.0927 11.3011 22.8323 11.1553C22.5719 11.0094 22.2698 10.9365 21.926 10.9365C21.5771 10.9365 21.2724 11.0094 21.012 11.1553C20.7568 11.3011 20.5562 11.5094 20.4104 11.7803C20.2698 12.0459 20.1995 12.361 20.1995 12.7256C20.1995 13.0954 20.2698 13.4131 20.4104 13.6787C20.5562 13.9391 20.7594 14.1396 21.0198 14.2803C21.2802 14.4209 21.5875 14.4912 21.9417 14.4912C22.2958 14.4912 22.6005 14.4209 22.8557 14.2803C23.1109 14.1396 23.3062 13.9391 23.4417 13.6787C23.5823 13.4131 23.6526 13.0954 23.6526 12.7256ZM25.4807 7.58496C25.4807 8.15788 25.3297 8.66829 25.0276 9.11621C24.7255 9.55892 24.3062 9.90527 23.7698 10.1553C23.2385 10.4053 22.6292 10.5303 21.9417 10.5303C21.2542 10.5303 20.6396 10.4053 20.0979 10.1553C19.5614 9.90527 19.1396 9.55892 18.8323 9.11621C18.5302 8.66829 18.3792 8.15788 18.3792 7.58496C18.3792 6.90788 18.5328 6.33496 18.8401 5.86621C19.1474 5.39225 19.5667 5.03288 20.0979 4.78809C20.6344 4.54329 21.2437 4.4209 21.926 4.4209C22.6187 4.4209 23.2333 4.54329 23.7698 4.78809C24.3062 5.03288 24.7255 5.39225 25.0276 5.86621C25.3297 6.33496 25.4807 6.90788 25.4807 7.58496ZM23.4182 7.6709C23.4182 7.34798 23.3583 7.06673 23.2385 6.82715C23.1187 6.58236 22.9469 6.39225 22.7229 6.25684C22.5042 6.12142 22.2385 6.05371 21.926 6.05371C21.6239 6.05371 21.3635 6.11882 21.1448 6.24902C20.926 6.37923 20.7568 6.56673 20.637 6.81152C20.5172 7.05111 20.4573 7.33757 20.4573 7.6709C20.4573 7.99902 20.5172 8.28548 20.637 8.53027C20.7568 8.77507 20.926 8.96777 21.1448 9.1084C21.3687 9.24382 21.6344 9.31152 21.9417 9.31152C22.2489 9.31152 22.512 9.24382 22.7307 9.1084C22.9495 8.96777 23.1187 8.77507 23.2385 8.53027C23.3583 8.28548 23.4182 7.99902 23.4182 7.6709ZM35.2229 11.8115V13.4365H27.0276L26.9417 12.1865L31.762 4.58496H33.4104L31.6292 7.6084L29.0432 11.8115H35.2229ZM33.8713 4.58496V15.96H31.801V4.58496H33.8713ZM36.4104 7.37402V6.77246C36.4104 6.34017 36.5042 5.94694 36.6917 5.59277C36.8792 5.23861 37.1526 4.95475 37.512 4.74121C37.8765 4.52767 38.3193 4.4209 38.8401 4.4209C39.3713 4.4209 39.8167 4.52767 40.176 4.74121C40.5406 4.95475 40.814 5.23861 40.9963 5.59277C41.1838 5.94694 41.2776 6.34017 41.2776 6.77246V7.37402C41.2776 7.7959 41.1838 8.18392 40.9963 8.53809C40.814 8.89225 40.5432 9.17611 40.1838 9.38965C39.8245 9.60319 39.3818 9.70996 38.8557 9.70996C38.3297 9.70996 37.8844 9.60319 37.5198 9.38965C37.1552 9.17611 36.8792 8.89225 36.6917 8.53809C36.5042 8.18392 36.4104 7.7959 36.4104 7.37402ZM37.8088 6.77246V7.37402C37.8088 7.57194 37.8453 7.75944 37.9182 7.93652C37.9963 8.1084 38.1135 8.24902 38.2698 8.3584C38.426 8.46777 38.6213 8.52246 38.8557 8.52246C39.0901 8.52246 39.2802 8.46777 39.426 8.3584C39.5771 8.24902 39.689 8.1084 39.762 7.93652C39.8401 7.75944 39.8792 7.57194 39.8792 7.37402V6.77246C39.8792 6.56934 39.8401 6.37923 39.762 6.20215C39.689 6.02507 39.5745 5.88184 39.4182 5.77246C39.2672 5.66309 39.0745 5.6084 38.8401 5.6084C38.6109 5.6084 38.4182 5.66309 38.262 5.77246C38.1109 5.88184 37.9963 6.02507 37.9182 6.20215C37.8453 6.37923 37.8088 6.56934 37.8088 6.77246ZM41.8713 13.7725V13.1709C41.8713 12.7438 41.9651 12.3532 42.1526 11.999C42.3453 11.6449 42.6239 11.361 42.9885 11.1475C43.3531 10.9339 43.7932 10.8271 44.3088 10.8271C44.8453 10.8271 45.2932 10.9339 45.6526 11.1475C46.012 11.361 46.2828 11.6449 46.4651 11.999C46.6526 12.3532 46.7463 12.7438 46.7463 13.1709V13.7725C46.7463 14.1995 46.6526 14.5902 46.4651 14.9443C46.2828 15.2985 46.012 15.5824 45.6526 15.7959C45.2984 16.0094 44.8557 16.1162 44.3245 16.1162C43.8036 16.1162 43.3583 16.0094 42.9885 15.7959C42.6239 15.5824 42.3453 15.2985 42.1526 14.9443C41.9651 14.5902 41.8713 14.1995 41.8713 13.7725ZM43.2776 13.1709V13.7725C43.2776 13.9756 43.3193 14.1657 43.4026 14.3428C43.4859 14.5146 43.6057 14.6553 43.762 14.7646C43.9234 14.874 44.1109 14.9287 44.3245 14.9287C44.5849 14.9287 44.7906 14.874 44.9417 14.7646C45.0927 14.6553 45.1995 14.5146 45.262 14.3428C45.3245 14.1657 45.3557 13.9756 45.3557 13.7725V13.1709C45.3557 12.9678 45.3167 12.7803 45.2385 12.6084C45.1604 12.4313 45.0432 12.2881 44.887 12.1787C44.7359 12.0693 44.5432 12.0146 44.3088 12.0146C44.0797 12.0146 43.887 12.0693 43.7307 12.1787C43.5797 12.2881 43.4651 12.4313 43.387 12.6084C43.314 12.7803 43.2776 12.9678 43.2776 13.1709ZM44.8245 6.20996L39.2698 15.1006L38.2463 14.5303L43.801 5.63965L44.8245 6.20996Z" fill="white"/>
<g clip-path="url(#clip0_280_1761)">
<path fill-rule="evenodd" clip-rule="evenodd" d="M50.4455 37.5673C50.9731 39.7532 49.391 41.5867 47.3293 42.0846C45.2675 42.5821 42.9742 41.6839 42.4464 39.4978C42.0741 37.9552 42.6338 36.7048 43.694 35.8872C43.7954 35.8046 43.9222 35.7244 44.0073 35.6951C43.4773 35.7383 43.1569 35.7143 42.8339 35.8229C42.8003 35.8325 42.7662 35.7988 42.784 35.7638C43.1294 35.1092 43.9225 34.7899 44.4844 35.0065C44.1029 34.6731 43.8029 34.4073 43.8029 34.4073L44.326 33.9749C44.326 33.9749 44.6609 34.4691 44.9044 34.8289C45.2244 34.1134 46.0184 33.9126 46.4385 34.3062C46.4625 34.3302 46.4481 34.3715 46.4144 34.3768C46.1362 34.42 46.0344 34.7068 46.0565 34.9005L46.2977 34.8716C48.2717 34.6189 49.97 35.602 50.4447 37.5693L50.4455 37.5673ZM19.6284 29.7403C19.2465 29.5861 19.0209 29.2567 19.1975 28.9032C19.3305 28.638 19.7202 28.5304 20.018 28.6467C20.375 28.7855 20.4317 29.1555 20.6146 29.3095C20.7722 29.4421 20.9874 29.4584 21.1284 29.3676C21.2326 29.3004 21.2668 29.1529 21.2278 29.0179C21.176 28.8387 21.0376 28.7272 20.903 28.6172C20.6633 28.4226 20.325 28.2549 20.5297 27.7231C20.6974 27.2874 21.1893 27.272 21.1893 27.272C21.3849 27.248 21.5597 27.3104 21.7024 27.4363C21.8932 27.6064 21.9302 27.8346 21.898 28.0773C21.8692 28.2988 21.7904 28.4934 21.7495 28.7129C21.7015 28.9681 21.8384 29.2251 22.0979 29.235C22.4385 29.2494 22.5408 28.9861 22.5828 28.8199C22.6439 28.5768 22.7241 28.351 22.9494 28.2091C23.2733 28.0049 23.7229 28.0496 23.9316 28.4416C24.0964 28.752 24.0436 29.179 23.7904 29.4122C23.677 29.5169 23.5401 29.5534 23.3926 29.5549C23.1807 29.5565 22.9688 29.5512 22.7721 29.65C22.638 29.7177 22.5799 29.8273 22.5799 29.9748C22.5799 30.1184 22.6549 30.2121 22.7759 30.2731C23.0042 30.3879 23.2559 30.4115 23.5024 30.4547C23.8599 30.5172 24.1742 30.6431 24.3759 30.9748L24.3807 30.9844C24.6123 31.3769 24.3711 31.9424 23.9147 31.9662C22.901 32.0195 22.694 30.8595 22.2961 30.8678C22.1265 30.871 21.9929 31.0484 22.0516 31.255C22.0852 31.3684 22.1736 31.5351 22.2298 31.6384C22.4287 32.003 22.1347 32.4154 21.7907 32.4502C21.2189 32.5084 20.9804 32.1764 20.9953 31.8371C21.0097 31.4561 21.335 31.0666 21.0049 30.901C20.6575 30.7271 20.3752 31.4065 20.0426 31.5579C19.7418 31.6948 19.3241 31.5867 19.1756 31.2547C19.0714 31.0198 19.0901 30.5677 19.5547 30.3955C19.8449 30.2879 20.4912 30.5363 20.5244 30.2211C20.5628 29.8584 19.8453 29.8276 19.6293 29.7406L19.6284 29.7403ZM21.7872 33.7149C24.0359 33.7149 25.7836 32.3972 25.7836 29.8824C25.7836 27.8191 24.6262 26.5616 22.9656 26.1768C22.0016 25.9875 21.3536 26.0182 20.4668 26.2104C18.8712 26.6332 17.6856 27.8769 17.6856 29.881C17.6856 32.3958 19.539 33.7135 21.7872 33.7135V33.7149ZM65.0213 39.5979C65.0213 40.3903 64.7033 41.0474 64.0766 41.5519C63.4836 42.0408 62.7042 42.29 61.7614 42.29C60.539 42.29 59.5479 42.0334 58.6608 41.4522L58.4931 41.334L59.6499 39.4253C60.9782 40.277 61.6646 40.1495 61.9263 40.1293C62.501 40.086 62.5633 39.4492 62.0878 39.4605C61.7226 39.4701 61.0009 39.5441 59.9309 39.0458C59.1826 38.588 58.6946 38.0544 58.6946 37.1743C58.6946 36.4144 59.0103 35.7924 59.6331 35.3253C60.2317 34.8765 60.8041 34.628 61.6578 34.5886C62.7645 34.5376 63.5662 34.7783 64.56 35.2898L64.7694 35.4291L63.714 37.1679C62.5579 36.7047 61.9587 36.5786 61.5393 36.6587C61.048 36.7519 61.1189 37.2288 61.4812 37.2772C61.8434 37.3252 62.4223 37.1696 63.5125 37.5563C64.4589 37.9344 65.0213 38.5492 65.0213 39.5979ZM47.4704 33.5284H44.5602V26.2556H47.4416V27.0983C47.6352 26.6582 48.4867 26.0499 49.3284 26.0499C51.0537 26.0499 52.0431 27.244 52.0431 29.3259V33.5284H49.1363V29.5667C49.1363 28.9562 48.8725 28.6465 48.3529 28.6465C47.808 28.6465 47.4704 28.8762 47.4704 30.0195V33.5284ZM33.1188 39.2448C32.8982 39.4932 32.5851 39.6243 32.2138 39.6243C31.6142 39.6243 31.0066 39.2097 31.0066 38.4173C31.0066 38.1026 31.1138 37.8091 31.3088 37.5898C31.5294 37.3419 31.8425 37.2108 32.2139 37.2108C32.8138 37.2108 33.421 37.6254 33.421 38.4175C33.421 38.7322 33.3138 39.0258 33.1188 39.2448ZM33.4628 35.6256L33.2807 35.4267C32.7755 34.8751 32.1408 34.5837 31.4452 34.5837C30.9542 34.5837 30.4371 34.7326 29.9492 35.0141C28.862 35.6412 28.2124 36.9109 28.2117 38.4104C28.2109 39.9166 28.8604 41.1919 29.9492 41.8213C30.4371 42.1033 30.9572 42.2527 31.4534 42.2527C32.1471 42.2527 32.7789 41.9683 33.2814 41.4305L33.463 41.236V42.0535H36.2579V34.7895H33.463L33.4628 35.6256ZM26.8031 28.7496H26.0505V26.2423H26.8031V24.2595H29.6871V26.2423H30.8243V28.7496H29.6871V30.572C29.6871 30.9257 29.8379 31.0769 30.1922 31.0769H31.1055V33.5712L30.9379 33.576C30.6443 33.5904 30.2522 33.6049 29.8447 33.6049C27.9118 33.6049 26.8031 32.6349 26.8031 30.7574L26.8031 28.7496ZM35.5246 31.0825H36.4382V33.5765L36.2701 33.5861C35.977 33.6005 35.5847 33.6149 35.1769 33.6149C33.244 33.6149 32.1356 32.6453 32.1356 30.7675V28.7568H31.3825V26.2496H32.1355V24.2668H35.0191V26.2496H36.1567V28.7568H35.0191V30.5793C35.0191 30.9334 35.17 31.0845 35.5243 31.0845L35.5246 31.0825ZM8.47467 35.2602H5.9965V42.0624H3.18342V35.2602H0.705566V32.4936H8.47467V35.2602ZM40.9576 39.6121H41.8722V42.1084L41.7041 42.118C41.4105 42.1324 41.0177 42.1468 40.6099 42.1468C38.6754 42.1468 37.5656 41.1759 37.5656 39.2968V37.2841H36.8123V34.7749H37.5656V32.7901H40.4519V34.7749H41.5905V37.2841H40.4519V39.1083C40.4519 39.4624 40.6033 39.6138 40.9575 39.6138L40.9576 39.6121ZM27.7263 37.8509V42.0624H24.7956V38.1063C24.7956 37.4848 24.53 37.1699 24.0056 37.1699C23.4838 37.1699 23.3792 37.497 23.345 37.6047C23.2552 37.9275 23.2398 38.1115 23.2398 38.5027V42.0623H20.3511V38.1062C20.3511 37.4848 20.0806 37.1698 19.5472 37.1698C19.244 37.1698 19.046 37.3173 18.9685 37.4436C18.9137 37.5258 18.8729 37.6742 18.8469 37.779C18.795 38.0783 18.795 38.1849 18.795 38.5031V42.0627H15.9875V34.7736H18.7668L18.7647 35.4586C18.9617 35.057 19.7138 34.5838 20.7685 34.5838C21.6368 34.5838 22.3288 34.8821 22.769 35.4467L22.8469 35.5466L22.9309 35.4515C23.456 34.8572 24.0579 34.6035 24.944 34.6035C25.7805 34.6035 27.7256 34.9201 27.7256 37.851L27.7263 37.8509ZM11.51 39.579C10.8087 39.579 10.1846 39.0483 10.1846 38.3176C10.1846 37.5786 10.8087 37.042 11.51 37.042C12.2226 37.042 12.8354 37.5667 12.8354 38.3176C12.8354 39.0719 12.2335 39.579 11.51 39.579ZM12.6834 34.7106C11.7187 34.5214 11.1871 34.5521 10.2999 34.7443C8.70322 35.1671 7.51701 36.4115 7.51701 38.4165C7.51701 40.9324 9.44525 42.2507 11.5627 42.2507C13.6805 42.2507 15.5028 40.9324 15.5028 38.4165C15.5028 36.3522 14.3447 35.0941 12.6834 34.7092V34.7106ZM12.507 26.1913H13.3382C14.1432 26.1913 14.6632 26.5733 14.6632 27.1639C14.6632 27.8267 14.1802 28.2069 13.3382 28.2069H12.507V26.1913ZM12.5119 30.4237H12.9941L14.8108 33.5284H18.0737L16.0567 30.1434L16.1475 30.0887C17.1171 29.5024 17.609 28.5765 17.609 27.337C17.609 25.1908 16.1465 23.96 13.5961 23.96H9.61434V33.5287H12.5119L12.5119 30.4237ZM53.4519 37.6233C53.5691 37.0711 54.0042 36.6865 54.6233 36.6865C55.309 36.6865 55.6939 37.0877 55.7439 37.6233H53.4519ZM54.6803 34.5835C53.5741 34.5835 52.6622 34.9424 51.9596 35.6749C51.257 36.3924 50.9131 37.3192 50.9131 38.4703C50.9131 39.6363 51.2869 40.5632 52.0341 41.2356C52.7818 41.9083 53.7236 42.2522 54.8598 42.2522C56.0023 42.2522 57.2154 42.0494 58.185 41.0173L56.4207 39.3574C56.0493 39.8466 55.5323 39.9351 54.8296 39.9351C54.2317 39.9351 53.5864 39.606 53.4519 39.0235H58.283L58.2975 38.3359C58.2975 37.2891 57.9833 36.4073 57.3557 35.6749C56.7279 34.9422 55.8309 34.5835 54.6797 34.5835H54.6803ZM40.3985 26.5103C41.0842 26.5103 41.4692 26.912 41.5192 27.4471H39.2272C39.3444 26.8949 39.7794 26.5103 40.3985 26.5103ZM40.6349 32.0763C41.7774 32.0763 42.9905 31.8735 43.9601 30.8414L42.1958 29.1812C41.8244 29.6707 41.3074 29.7592 40.6048 29.7592C40.0068 29.7592 39.3615 29.4301 39.227 28.8473H44.0582L44.0726 28.1596C44.0726 27.1132 43.7584 26.2314 43.1308 25.4987C42.5031 24.7663 41.606 24.4075 40.4549 24.4075C39.3488 24.4075 38.4368 24.7664 37.7342 25.4987C37.0316 26.2165 36.6878 27.143 36.6878 28.2944C36.6878 29.4604 37.0616 30.3869 37.8087 31.0596C38.5564 31.7324 39.4982 32.0763 40.6344 32.0763H40.6349Z" fill="#E63917"/>
</g>
<defs>
<clipPath id="clip0_280_1761">
<rect width="64.3158" height="18.33" fill="white" transform="translate(0.705566 23.96)"/>
</clipPath>
</defs>
</svg>
